<svg width="40" height="40" viewBox="0 0 40 40" fill="none" xmlns="http://www.w3.org/2000/svg">
<circle cx="20" cy="20" r="20" fill="#184F78"/>
<path d="M23.0126 27.5632C22.8405 27.388 22.7544 27.1836 22.7544 26.9499C22.7544 26.7163 22.8405 26.5119 23.0126 26.3367L28.3779 20.876H9.55642C9.30776 20.876 9.10214 20.7932 8.93955 20.6278C8.77697 20.4623 8.69568 20.253 8.69568 19.9999C8.69568 19.7468 8.77697 19.5376 8.93955 19.3721C9.10214 19.2066 9.30776 19.1239 9.55642 19.1239H28.3779L23.0126 13.6631C22.8596 13.5074 22.7783 13.3078 22.7687 13.0645C22.7592 12.8211 22.8405 12.6119 23.0126 12.4366C23.1848 12.2614 23.3856 12.1738 23.6151 12.1738C23.8447 12.1738 24.0455 12.2614 24.2176 12.4366L31.0462 19.3867C31.1418 19.484 31.2087 19.5814 31.247 19.6787C31.2852 19.776 31.3044 19.8831 31.3044 19.9999C31.3044 20.1167 31.2852 20.2238 31.247 20.3211C31.2087 20.4185 31.1418 20.5158 31.0462 20.6132L24.2176 27.5632C24.0455 27.7384 23.8447 27.826 23.6151 27.826C23.3856 27.826 23.1848 27.7384 23.0126 27.5632Z" fill="white"/>
</svg>
