<svg width="40" height="41" viewBox="0 0 40 41" fill="none" xmlns="http://www.w3.org/2000/svg">
<circle cx="20" cy="20.3333" r="20" fill="white"/>
<path d="M23.0126 27.8964C22.8405 27.7212 22.7544 27.5168 22.7544 27.2832C22.7544 27.0496 22.8405 26.8452 23.0126 26.67L28.3779 21.2092H9.55642C9.30776 21.2092 9.10214 21.1265 8.93955 20.961C8.77697 20.7955 8.69568 20.5862 8.69568 20.3332C8.69568 20.0801 8.77697 19.8708 8.93955 19.7053C9.10214 19.5398 9.30776 19.4571 9.55642 19.4571H28.3779L23.0126 13.9964C22.8596 13.8406 22.7783 13.6411 22.7687 13.3977C22.7592 13.1544 22.8405 12.9451 23.0126 12.7699C23.1848 12.5947 23.3856 12.5071 23.6151 12.5071C23.8447 12.5071 24.0455 12.5947 24.2176 12.7699L31.0462 19.7199C31.1418 19.8173 31.2087 19.9146 31.247 20.0119C31.2852 20.1093 31.3044 20.2164 31.3044 20.3332C31.3044 20.45 31.2852 20.557 31.247 20.6544C31.2087 20.7517 31.1418 20.8491 31.0462 20.9464L24.2176 27.8964C24.0455 28.0716 23.8447 28.1593 23.6151 28.1593C23.3856 28.1593 23.1848 28.0716 23.0126 27.8964Z" fill="#3A88FF"/>
</svg>
