<svg width="82" height="90" viewBox="0 0 82 90" fill="none" xmlns="http://www.w3.org/2000/svg">
<path d="M0 90V81.8182H82V90H0ZM8.2 77.7273V53.1818C5.945 49.5 4.2025 45.5966 2.9725 41.4716C1.7425 37.3466 1.1275 33.1364 1.1275 28.8409C1.1275 24.6818 1.65708 20.5909 2.71625 16.5682C3.77542 12.5455 5.0225 8.59091 6.4575 4.70455C7.00417 3.27273 7.8925 2.13068 9.1225 1.27841C10.3525 0.426136 11.7192 0 13.2225 0C15.3408 0 17.1517 0.715909 18.655 2.14773C20.1583 3.57955 20.7733 5.28409 20.5 7.26136L19.3725 16.5682C18.9625 19.8409 19.2529 22.9432 20.2437 25.875C21.2346 28.8068 22.7208 31.3807 24.7025 33.5966C26.6842 35.8125 29.0758 37.5852 31.8775 38.9148C34.6792 40.2443 37.72 40.9091 41 40.9091C45.1 40.9091 49.2171 41.3352 53.3512 42.1875C57.4854 43.0398 61.09 44.25 64.165 45.8182C67.24 47.3864 69.6146 49.3807 71.2887 51.8011C72.9629 54.2216 73.8 57.2045 73.8 60.75V77.7273H8.2ZM16.4 69.5455H65.6V60.75C65.6 59.1136 65.19 57.6648 64.37 56.4034C63.55 55.142 62.3883 54.1364 60.885 53.3864C58.0833 52.0227 54.8375 50.9659 51.1475 50.2159C47.4575 49.4659 44.075 49.0909 41 49.0909C36.49 49.0909 32.3046 48.1705 28.4437 46.3295C24.5829 44.4886 21.3029 42.017 18.6037 38.9148C15.9046 35.8125 13.8717 32.233 12.505 28.1761C11.1383 24.1193 10.7283 19.9091 11.275 15.5455C10.5917 17.5909 10.0962 19.7727 9.78875 22.0909C9.48125 24.4091 9.3275 26.6591 9.3275 28.8409C9.3275 32.7955 10.0279 36.5966 11.4287 40.2443C12.8296 43.892 14.4867 47.4545 16.4 50.9318V69.5455ZM41 36.8182C36.49 36.8182 32.6292 35.2159 29.4175 32.0114C26.2058 28.8068 24.6 24.9545 24.6 20.4545C24.6 15.9545 26.2058 12.1023 29.4175 8.89773C32.6292 5.69318 36.49 4.09091 41 4.09091C45.51 4.09091 49.3708 5.69318 52.5825 8.89773C55.7942 12.1023 57.4 15.9545 57.4 20.4545C57.4 24.9545 55.7942 28.8068 52.5825 32.0114C49.3708 35.2159 45.51 36.8182 41 36.8182ZM41 28.6364C43.255 28.6364 45.1854 27.8352 46.7912 26.233C48.3971 24.6307 49.2 22.7045 49.2 20.4545C49.2 18.2045 48.3971 16.2784 46.7912 14.6761C45.1854 13.0739 43.255 12.2727 41 12.2727C38.745 12.2727 36.8146 13.0739 35.2087 14.6761C33.6029 16.2784 32.8 18.2045 32.8 20.4545C32.8 22.7045 33.6029 24.6307 35.2087 26.233C36.8146 27.8352 38.745 28.6364 41 28.6364ZM24.6 77.7273V73.9432C24.6 69.375 26.1887 65.4545 29.3662 62.1818C32.5437 58.9091 36.4217 57.2727 41 57.2727H57.4V65.4545H41C38.6767 65.4545 36.7292 66.2898 35.1575 67.9602C33.5858 69.6307 32.8 71.625 32.8 73.9432V77.7273H24.6Z" fill="#184F78"/>
</svg>
