<svg width="105" height="84" viewBox="0 0 105 84" fill="none" xmlns="http://www.w3.org/2000/svg">
<path d="M20.8333 62.5H62.5V59.6354C62.5 55.816 60.5903 52.7344 56.7708 50.3906C52.9514 48.0469 47.9167 46.875 41.6667 46.875C35.4167 46.875 30.3819 48.0469 26.5625 50.3906C22.7431 52.7344 20.8333 55.816 20.8333 59.6354V62.5ZM41.6667 41.6667C44.5312 41.6667 46.9835 40.6467 49.0234 38.6068C51.0634 36.5668 52.0833 34.1146 52.0833 31.25C52.0833 28.3854 51.0634 25.9332 49.0234 23.8932C46.9835 21.8533 44.5312 20.8333 41.6667 20.8333C38.8021 20.8333 36.3498 21.8533 34.3099 23.8932C32.27 25.9332 31.25 28.3854 31.25 31.25C31.25 34.1146 32.27 36.5668 34.3099 38.6068C36.3498 40.6467 38.8021 41.6667 41.6667 41.6667ZM10.4167 83.3333C7.55208 83.3333 5.09983 82.3134 3.0599 80.2734C1.01997 78.2335 0 75.7812 0 72.9167V10.4167C0 7.55208 1.01997 5.09983 3.0599 3.0599C5.09983 1.01997 7.55208 0 10.4167 0H72.9167C75.7812 0 78.2335 1.01997 80.2734 3.0599C82.3134 5.09983 83.3333 7.55208 83.3333 10.4167V33.8542L104.167 13.0208V70.3125L83.3333 49.4792V72.9167C83.3333 75.7812 82.3134 78.2335 80.2734 80.2734C78.2335 82.3134 75.7812 83.3333 72.9167 83.3333H10.4167ZM10.4167 72.9167H72.9167V10.4167H10.4167V72.9167Z" fill="#184F78"/>
</svg>
