<svg width="99" height="99" viewBox="0 0 99 99" fill="none" xmlns="http://www.w3.org/2000/svg">
<path d="M61.875 64.35C64.5975 64.35 66.9281 63.3806 68.8669 61.4419C70.8056 59.5031 71.775 57.1725 71.775 54.45C71.775 51.7275 70.8056 49.3969 68.8669 47.4581C66.9281 45.5194 64.5975 44.55 61.875 44.55C60.6375 44.55 59.4619 44.7769 58.3481 45.2306C57.2344 45.6844 56.2237 46.2825 55.3162 47.025L42.075 40.3425V38.8575L55.3162 32.175C56.2237 32.9175 57.2344 33.5156 58.3481 33.9694C59.4619 34.4231 60.6375 34.65 61.875 34.65C64.5975 34.65 66.9281 33.6806 68.8669 31.7419C70.8056 29.8031 71.775 27.4725 71.775 24.75C71.775 22.0275 70.8056 19.6969 68.8669 17.7581C66.9281 15.8194 64.5975 14.85 61.875 14.85C59.1525 14.85 56.8219 15.8194 54.8831 17.7581C52.9444 19.6969 51.975 22.0275 51.975 24.75V25.4925L38.7337 32.175C37.8262 31.4325 36.8156 30.8344 35.7019 30.3806C34.5881 29.9269 33.4125 29.7 32.175 29.7C29.4525 29.7 27.1219 30.6694 25.1831 32.6081C23.2444 34.5469 22.275 36.8775 22.275 39.6C22.275 42.3225 23.2444 44.6531 25.1831 46.5919C27.1219 48.5306 29.4525 49.5 32.175 49.5C33.4125 49.5 34.5881 49.2731 35.7019 48.8194C36.8156 48.3656 37.8262 47.7675 38.7337 47.025L51.975 53.7075V54.45C51.975 57.1725 52.9444 59.5031 54.8831 61.4419C56.8219 63.3806 59.1525 64.35 61.875 64.35ZM0 99V9.9C0 7.1775 0.969375 4.84687 2.90812 2.90812C4.84687 0.969375 7.1775 0 9.9 0H89.1C91.8225 0 94.1531 0.969375 96.0919 2.90812C98.0306 4.84687 99 7.1775 99 9.9V69.3C99 72.0225 98.0306 74.3531 96.0919 76.2919C94.1531 78.2306 91.8225 79.2 89.1 79.2H19.8L0 99ZM15.5925 69.3H89.1V9.9H9.9V74.8688L15.5925 69.3Z" fill="white"/>
</svg>
